<svg width="60" height="60" xmlns="http://www.w3.org/2000/svg" xmlns:xlink="http://www.w3.org/1999/xlink">
 <defs>
  <path id="a" d="m29.861,0c16.492,0 29.861,13.37 29.861,29.861c0,16.492 -13.37,29.861 -29.86,29.861c-16.494,0 -29.862,-13.37 -29.862,-29.86c0,-16.494 13.37,-29.862 29.861,-29.862zm0,10.694c-10.585,0 -19.167,8.582 -19.167,19.167c0,10.586 8.582,19.167 19.167,19.167c10.586,0 19.167,-8.581 19.167,-19.167c0,-10.585 -8.581,-19.167 -19.167,-19.167z"/>
  <path id="e" d="m29.886,18.608l17.664,35.33a29.727,29.727 0 0 1 -17.664,5.782a29.727,29.727 0 0 1 -17.664,-5.783l17.664,-35.329z"/>
  <filter id="d" width="262.8%" height="281.6%" x="-81.4%" y="-100.8%" filterUnits="objectBoundingBox">
   <feGaussianBlur stdDeviation="9"/>
  </filter>
  <circle id="i" cx="30" cy="24.444" r="5.278"/>
  <linearGradient id="b" x1="50%" x2="50%" y1="95.423%" y2="0%">
   <stop offset="0%" stop-color="#ADADAD"/>
   <stop offset="100%" stop-color="#A9A9A9"/>
  </linearGradient>
  <linearGradient id="f" x1="50%" x2="50%" y1="0%" y2="100%">
   <stop offset="0%" stop-color="#3967FF"/>
   <stop offset="100%" stop-color="#B500FE"/>
  </linearGradient>
  <linearGradient id="g" x1="50%" x2="50%" y1="0%" y2="100%">
   <stop offset="0%" stop-color="#BEBEBE"/>
   <stop offset="100%" stop-color="#8E8E8E"/>
  </linearGradient>
  <linearGradient id="h" x1="50%" x2="50%" y1="0%" y2="100%">
   <stop offset="0%" stop-color="#F900B8"/>
   <stop offset="100%" stop-color="#AE48C0"/>
  </linearGradient>
  <linearGradient id="j" x1="100%" x2="26.765%" y1="15.127%" y2="100%">
   <stop offset="0%" stop-color="#6C6C6C"/>
   <stop offset="100%" stop-color="#6C6C6C"/>
  </linearGradient>
 </defs>
 <g>
  <title>background</title>
  <rect x="-1" y="-1" width="62" height="62" id="canvas_background" fill="none"/>
 </g>
 <g>
  <title>Layer 1</title>
  <g stroke="null" fill="none" fill-rule="evenodd" id="svg_1">
   <g stroke="null" transform="matrix(-0.45906154535116506,-0.4717818205787843,0.45906154535116517,-0.4717818205787842,31.064492277065334,76.15435285025178) " id="svg_4">
    <mask stroke="null" transform="translate(0,-1) " id="c">
     <use stroke="null" xlink:href="#a" id="svg_5"/>
    </mask>
    <use stroke="null" fill="url(#b)" xlink:href="#a" id="svg_6" y="8.930732" x="24.256416" transform="matrix(1.3117859333415538,0,0,1.3192887988090831,-21.1291286781464,-2.8960452106767747) "/>
    <g stroke="null" mask="url(#c)" id="svg_7">
     <use stroke="null" fill="#000" filter="url(#d)" xlink:href="#e" id="svg_8" y="8.930732" x="24.256416" transform="matrix(1.3117859333415538,0,0,1.3192887988090831,-21.1291286781464,-2.8960452106767747) "/>
     <use stroke="null" fill="url(#f)" xlink:href="#e" id="svg_9" y="8.930732" x="24.256416" transform="matrix(1.3117859333415538,0,0,1.3192887988090831,-21.1291286781464,-2.8960452106767747) "/>
    </g>
    <path stroke="null" fill="url(#g)" d="m50.04368,53.09554c3.12992,0 5.95813,-1.2309 7.97697,-3.21247l15.04487,30.26184a38.99546,39.2185 0 0 1 -23.17139,7.62813a38.99546,39.2185 0 0 1 -23.17139,-7.62813l15.14457,-30.46237c2.03065,2.09898 4.9415,3.41432 8.17637,3.41432l0,-0.00132z" id="svg_10"/>
    <use stroke="null" fill="url(#h)" xlink:href="#i" id="svg_11" y="8.930732" x="24.256416" transform="matrix(1.3117859333415538,0,0,1.3192887988090831,-21.1291286781464,-2.8960452106767747) "/>
    <use stroke="null" fill="url(#j)" xlink:href="#i" id="svg_12" y="8.930732" x="24.256416" transform="matrix(1.3117859333415538,0,0,1.3192887988090831,-21.1291286781464,-2.8960452106767747) "/>
   </g>
  </g>
 </g>
</svg>
